{
  "accessors": [
    {
      "bufferView": 1,
      "componentType": 5126,
      "count": 65532,
      "max": [
        0.22543999552726746,
        0.16494999825954437,
        1.6540199518203735
      ],
      "min": [
        -0.41144001483917236,
        -0.480430006980896,
        -1.787600040435791
      ],
      "type": "VEC3"
    },
    {
      "bufferView": 1,
      "byteOffset": 786384,
      "componentType": 5126,
      "count": 65532,
      "max": [
        0.99993181228637695,
        0.99691188335418701,
        0.99791127443313599
      ],
      "min": [
        -0.99668985605239868,
        -0.99988800287246704,
        -0.99996393918991089
      ],
      "type": "VEC3"
    },
    {
      "bufferView": 2,
      "componentType": 5126,
      "count": 65532,
      "max": [
        0.99999284744262695,
        0.99994122982025146,
        0.99996131658554077,
        1
      ],
      "min": [
        -0.99999278783798218,
        -0.99983471632003784,
        -0.9999011754989624,
        -1
      ],
      "type": "VEC4"
    },
    {
      "bufferView": 1,
      "byteOffset": 1572768,
      "componentType": 5126,
      "count": 65532,
      "max": [
        1,
        1,
        1
      ],
      "min": [
        0.80783998966217041,
        0.6627500057220459,
        0.41569000482559204
      ],
      "type": "VEC3"
    },
    {
      "bufferView": 0,
      "componentType": 5125,
      "count": 103086,
      "max": [
        65531
      ],
      "min": [
        0
      ],
      "type": "SCALAR"
    },
    {
      "bufferView": 1,
      "byteOffset": 2359152,
      "componentType": 5126,
      "count": 65532,
      "max": [
        1.4970999956130981,
        0.92361998558044434,
        1.72052001953125
      ],
      "min": [
        -0.08369000256061554,
        -0.42447999119758606,
        -1.783769965171814
      ],
      "type": "VEC3"
    },
    {
      "bufferView": 1,
      "byteOffset": 3145536,
      "componentType": 5126,
      "count": 65532,
      "max": [
        0.99998754262924194,
        0.99708890914916992,
        0.9998590350151062
      ],
      "min": [
        -0.99990373849868774,
        -0.99983894824981689,
        -0.999062180519104
      ],
      "type": "VEC3"
    },
    {
      "bufferView": 2,
      "byteOffset": 1048512,
      "componentType": 5126,
      "count": 65532,
      "max": [
        0.99996083974838257,
        0.99999070167541504,
        0.99953031539916992,
        1
      ],
      "min": [
        -0.99181896448135376,
        -0.99984526634216309,
        -0.99999934434890747,
        -1
      ],
      "type": "VEC4"
    },
    {
      "bufferView": 1,
      "byteOffset": 3931920,
      "componentType": 5126,
      "count": 65532,
      "max": [
        1,
        1,
        1
      ],
      "min": [
        0.80783998966217041,
        0.60784000158309937,
        0.3803899884223938
      ],
      "type": "VEC3"
    },
    {
      "bufferView": 0,
      "byteOffset": 412344,
      "componentType": 5125,
      "count": 193815,
      "max": [
        65531
      ],
      "min": [
        0
      ],
      "type": "SCALAR"
    },
    {
      "bufferView": 1,
      "byteOffset": 4718304,
      "componentType": 5126,
      "count": 65532,
      "max": [
        0.92013001441955566,
        1.0643999576568604,
        1.7480000257492065
      ],
      "min": [
        -0.046440001577138901,
        -0.025119999423623085,
        -1.7195700407028198
      ],
      "type": "VEC3"
    },
    {
      "bufferView": 1,
      "byteOffset": 5504688,
      "componentType": 5126,
      "count": 65532,
      "max": [
        0.98034518957138062,
        0.99999946355819702,
        0.99996227025985718
      ],
      "min": [
        -0.99990206956863403,
        -0.99997919797897339,
        -0.97341239452362061
      ],
      "type": "VEC3"
    },
    {
      "bufferView": 2,
      "byteOffset": 2097024,
      "componentType": 5126,
      "count": 65532,
      "max": [
        0.99941229820251465,
        0.99999374151229858,
        0.99999886751174927,
        1
      ],
      "min": [
        -0.70663601160049438,
        -0.94601565599441528,
        -0.99999982118606567,
        1
      ],
      "type": "VEC4"
    },
    {
      "bufferView": 1,
      "byteOffset": 6291072,
      "componentType": 5126,
      "count": 65532,
      "max": [
        1,
        1,
        1
      ],
      "min": [
        0.80783998966217041,
        0.6627500057220459,
        0.41569000482559204
      ],
      "type": "VEC3"
    },
    {
      "bufferView": 0,
      "byteOffset": 1187604,
      "componentType": 5125,
      "count": 185757,
      "max": [
        65531
      ],
      "min": [
        0
      ],
      "type": "SCALAR"
    },
    {
      "bufferView": 1,
      "byteOffset": 7077456,
      "componentType": 5126,
      "count": 65532,
      "max": [
        0.21563999354839325,
        1.0718100070953369,
        1.5679899454116821
      ],
      "min": [
        -0.59446001052856445,
        -0.072829999029636383,
        -1.7350900173187256
      ],
      "type": "VEC3"
    },
    {
      "bufferView": 1,
      "byteOffset": 7863840,
      "componentType": 5126,
      "count": 65532,
      "max": [
        0.98899590969085693,
        0.99993395805358887,
        0.99985092878341675
      ],
      "min": [
        -0.92648041248321533,
        -0.50221920013427734,
        -0.99331402778625488
      ],
      "type": "VEC3"
    },
    {
      "bufferView": 2,
      "byteOffset": 3145536,
      "componentType": 5126,
      "count": 65532,
      "max": [
        0.69429111480712891,
        0.999714195728302,
        0.80035316944122314,
        1
      ],
      "min": [
        -0.86277270317077637,
        -0.99948567152023315,
        -0.99999719858169556,
        1
      ],
      "type": "VEC4"
    },
    {
      "bufferView": 1,
      "byteOffset": 8650224,
      "componentType": 5126,
      "count": 65532,
      "max": [
        1,
        1,
        1
      ],
      "min": [
        0.80783998966217041,
        0.6627500057220459,
        0.41569000482559204
      ],
      "type": "VEC3"
    },
    {
      "bufferView": 0,
      "byteOffset": 1930632,
      "componentType": 5125,
      "count": 169350,
      "max": [
        65531
      ],
      "min": [
        0
      ],
      "type": "SCALAR"
    },
    {
      "bufferView": 1,
      "byteOffset": 9436608,
      "componentType": 5126,
      "count": 65532,
      "max": [
        -0.051389999687671661,
        0.89427000284194946,
        1.6246099472045898
      ],
      "min": [
        -1.0397399663925171,
        -0.1756100058555603,
        -1.7397500276565552
      ],
      "type": "VEC3"
    },
    {
      "bufferView": 1,
      "byteOffset": 10222992,
      "componentType": 5126,
      "count": 65532,
      "max": [
        0.71682494878768921,
        0.99308031797409058,
        0.92319178581237793
      ],
      "min": [
        -0.99200743436813354,
        -0.48373112082481384,
        -0.99994128942489624
      ],
      "type": "VEC3"
    },
    {
      "bufferView": 2,
      "byteOffset": 4194048,
      "componentType": 5126,
      "count": 65532,
      "max": [
        0.89318299293518066,
        0.72992968559265137,
        0.30103057622909546,
        1
      ],
      "min": [
        -0.9648478627204895,
        -0.9936683177947998,
        -0.99999988079071045,
        1
      ],
      "type": "VEC4"
    },
    {
      "bufferView": 1,
      "byteOffset": 11009376,
      "componentType": 5126,
      "count": 65532,
      "max": [
        1,
        1,
        1
      ],
      "min": [
        0.96863001585006714,
        0.81960999965667725,
        0.5529400110244751
      ],
      "type": "VEC3"
    },
    {
      "bufferView": 0,
      "byteOffset": 2608032,
      "componentType": 5125,
      "count": 177144,
      "max": [
        65531
      ],
      "min": [
        0
      ],
      "type": "SCALAR"
    },
    {
      "bufferView": 1,
      "byteOffset": 11795760,
      "componentType": 5126,
      "count": 65532,
      "max": [
        0.061349999159574509,
        0.26157999038696289,
        1.7560299634933472
      ],
      "min": [
        -1.1732100248336792,
        -0.61260002851486206,
        -1.7419799566268921
      ],
      "type": "VEC3"
    },
    {
      "bufferView": 1,
      "byteOffset": 12582144,
      "componentType": 5126,
      "count": 65532,
      "max": [
        0.86693346500396729,
        0.84931278228759766,
        0.98725211620330811
      ],
      "min": [
        -0.99987691640853882,
        -0.74338632822036743,
        -0.99997442960739136
      ],
      "type": "VEC3"
    },
    {
      "bufferView": 2,
      "byteOffset": 5242560,
      "componentType": 5126,
      "count": 65532,
      "max": [
        0.99999517202377319,
        0.79231786727905273,
        0.89095723628997803,
        1
      ],
      "min": [
        -0.99983203411102295,
        -0.65190368890762329,
        -0.99999624490737915,
        1
      ],
      "type": "VEC4"
    },
    {
      "bufferView": 1,
      "byteOffset": 13368528,
      "componentType": 5126,
      "count": 65532,
      "max": [
        1,
        1,
        1
      ],
      "min": [
        1,
        0.81960999965667725,
        0.51372998952865601
      ],
      "type": "VEC3"
    },
    {
      "bufferView": 0,
      "byteOffset": 3316608,
      "componentType": 5125,
      "count": 189966,
      "max": [
        65531
      ],
      "min": [
        0
      ],
      "type": "SCALAR"
    },
    {
      "bufferView": 1,
      "byteOffset": 14154912,
      "componentType": 5126,
      "count": 65532,
      "max": [
        0.068199999630451202,
        -0.1838500052690506,
        1.7669999599456787
      ],
      "min": [
        -1.0417799949645996,
        -1.1255899667739868,
        -1.7570199966430664
      ],
      "type": "VEC3"
    },
    {
      "bufferView": 1,
      "byteOffset": 14941296,
      "componentType": 5126,
      "count": 65532,
      "max": [
        0.99999886751174927,
        0.99728226661682129,
        0.99997121095657349
      ],
      "min": [
        -0.99995642900466919,
        -0.9999660849571228,
        -0.99966752529144287
      ],
      "type": "VEC3"
    },
    {
      "bufferView": 2,
      "byteOffset": 6291072,
      "componentType": 5126,
      "count": 65532,
      "max": [
        0.99990326166152954,
        0.99978834390640259,
        0.9972342848777771,
        1
      ],
      "min": [
        -0.99998772144317627,
        -0.99990713596343994,
        -0.99999690055847168,
        -1
      ],
      "type": "VEC4"
    },
    {
      "bufferView": 1,
      "byteOffset": 15727680,
      "componentType": 5126,
      "count": 65532,
      "max": [
        1,
        1,
        1
      ],
      "min": [
        0.80783998966217041,
        0.6627500057220459,
        0.41569000482559204
      ],
      "type": "VEC3"
    },
    {
      "bufferView": 0,
      "byteOffset": 4076472,
      "componentType": 5125,
      "count": 202230,
      "max": [
        65531
      ],
      "min": [
        0
      ],
      "type": "SCALAR"
    },
    {
      "bufferView": 1,
      "byteOffset": 16514064,
      "componentType": 5126,
      "count": 65532,
      "max": [
        0.74462002515792847,
        -0.036529999226331711,
        1.6375600099563599
      ],
      "min": [
        -0.28795000910758972,
        -1.2380399703979492,
        -1.7501599788665771
      ],
      "type": "VEC3"
    },
    {
      "bufferView": 1,
      "byteOffset": 17300448,
      "componentType": 5126,
      "count": 65532,
      "max": [
        0.99991095066070557,
        0.999339759349823,
        0.99992084503173828
      ],
      "min": [
        -0.99415600299835205,
        -1,
        -0.99979835748672485
      ],
      "type": "VEC3"
    },
    {
      "bufferView": 2,
      "byteOffset": 7339584,
      "componentType": 5126,
      "count": 65532,
      "max": [
        0.99907994270324707,
        0.9859204888343811,
        0.99992436170578003,
        1
      ],
      "min": [
        -0.94871872663497925,
        -0.99992227554321289,
        -0.9999927282333374,
        -1
      ],
      "type": "VEC4"
    },
    {
      "bufferView": 1,
      "byteOffset": 18086832,
      "componentType": 5126,
      "count": 65532,
      "max": [
        1,
        1,
        1
      ],
      "min": [
        0.80783998966217041,
        0.6627500057220459,
        0.41569000482559204
      ],
      "type": "VEC3"
    },
    {
      "bufferView": 0,
      "byteOffset": 4885392,
      "componentType": 5125,
      "count": 201090,
      "max": [
        65531
      ],
      "min": [
        0
      ],
      "type": "SCALAR"
    },
    {
      "bufferView": 1,
      "byteOffset": 18873216,
      "componentType": 5126,
      "count": 65532,
      "max": [
        1.5581899881362915,
        0.10373999923467636,
        1.6941499710083008
      ],
      "min": [
        0.020759999752044678,
        -1.15625,
        -1.6937700510025024
      ],
      "type": "VEC3"
    },
    {
      "bufferView": 1,
      "byteOffset": 19659600,
      "componentType": 5126,
      "count": 65532,
      "max": [
        0.99985283613204956,
        0.99991607666015625,
        0.99861907958984375
      ],
      "min": [
        -0.99999970197677612,
        -0.99978405237197876,
        -0.96614915132522583
      ],
      "type": "VEC3"
    },
    {
      "bufferView": 2,
      "byteOffset": 8388096,
      "componentType": 5126,
      "count": 65532,
      "max": [
        0.99971622228622437,
        0.98878335952758789,
        0.99926292896270752,
        1
      ],
      "min": [
        -0.93591016530990601,
        -0.99458271265029907,
        -0.99999731779098511,
        -1
      ],
      "type": "VEC4"
    },
    {
      "bufferView": 1,
      "byteOffset": 20445984,
      "componentType": 5126,
      "count": 65532,
      "max": [
        1,
        1,
        1
      ],
      "min": [
        0.80783998966217041,
        0.60784000158309937,
        0.3803899884223938
      ],
      "type": "VEC3"
    },
    {
      "bufferView": 0,
      "byteOffset": 5689752,
      "componentType": 5125,
      "count": 200223,
      "max": [
        65531
      ],
      "min": [
        0
      ],
      "type": "SCALAR"
    },
    {
      "bufferView": 1,
      "byteOffset": 21232368,
      "componentType": 5126,
      "count": 12083,
      "max": [
        1.5311499834060669,
        0.13246999680995941,
        1.4186899662017822
      ],
      "min": [
        0.22543999552726746,
        -0.40235000848770142,
        -1.6991399526596069
      ],
      "type": "VEC3"
    },
    {
      "bufferView": 1,
      "byteOffset": 21377364,
      "componentType": 5126,
      "count": 12083,
      "max": [
        0.99996238946914673,
        0.99934321641921997,
        0.97903311252593994
      ],
      "min": [
        -0.99846166372299194,
        -0.66934692859649658,
        -0.94975370168685913
      ],
      "type": "VEC3"
    },
    {
      "bufferView": 2,
      "byteOffset": 9436608,
      "componentType": 5126,
      "count": 12083,
      "max": [
        0.98503923416137695,
        0.98921012878417969,
        0.9240572452545166,
        1
      ],
      "min": [
        -0.94958388805389404,
        -0.84657001495361328,
        -0.99999463558197021,
        -1
      ],
      "type": "VEC4"
    },
    {
      "bufferView": 1,
      "byteOffset": 21522360,
      "componentType": 5126,
      "count": 12083,
      "max": [
        1,
        1,
        1
      ],
      "min": [
        0.80783998966217041,
        0.60784000158309937,
        0.3803899884223938
      ],
      "type": "VEC3"
    },
    {
      "bufferView": 0,
      "byteOffset": 6490644,
      "componentType": 5125,
      "count": 36219,
      "max": [
        12082
      ],
      "min": [
        0
      ],
      "type": "SCALAR"
    }
  ],
  "asset": {
    "extras": {
      "author": "majdsalman (https://sketchfab.com/majdsalman)",
      "license": "CC-BY-4.0 (http://creativecommons.org/licenses/by/4.0/)",
      "source": "https://sketchfab.com/models/c2612dddc7034e1b9b590c8cd85a92b5",
      "title": "Popcorn"
    },
    "generator": "Sketchfab-3.30.0",
    "version": "2.0"
  },
  "bufferViews": [
    {
      "buffer": 0,
      "byteLength": 6635520,
      "byteOffset": 0,
      "name": "floatBufferViews",
      "target": 34963
    },
    {
      "buffer": 0,
      "byteLength": 21667356,
      "byteOffset": 6635520,
      "byteStride": 12,
      "name": "floatBufferViews",
      "target": 34962
    },
    {
      "buffer": 0,
      "byteLength": 9629936,
      "byteOffset": 28302876,
      "byteStride": 16,
      "name": "floatBufferViews",
      "target": 34962
    }
  ],
  "buffers": [
    {
      "byteLength": 37932812,
      "uri": "scene.bin"
    }
  ],
  "materials": [
    {
      "doubleSided": true,
      "emissiveFactor": [
        0,
        0,
        0
      ],
      "name": "Material.001",
      "pbrMetallicRoughness": {
        "baseColorFactor": [
          0.80000001190000003,
          0.80000001190000003,
          0.80000001190000003,
          1
        ],
        "metallicFactor": 0,
        "roughnessFactor": 0.59999999999999998
      }
    }
  ],
  "meshes": [
    {
      "name": "Sphere",
      "primitives": [
        {
          "attributes": {
            "COLOR_0": 3,
            "NORMAL": 1,
            "POSITION": 0,
            "TANGENT": 2
          },
          "indices": 4,
          "material": 0,
          "mode": 4
        }
      ]
    },
    {
      "name": "Sphere",
      "primitives": [
        {
          "attributes": {
            "COLOR_0": 8,
            "NORMAL": 6,
            "POSITION": 5,
            "TANGENT": 7
          },
          "indices": 9,
          "material": 0,
          "mode": 4
        }
      ]
    },
    {
      "name": "Sphere",
      "primitives": [
        {
          "attributes": {
            "COLOR_0": 13,
            "NORMAL": 11,
            "POSITION": 10,
            "TANGENT": 12
          },
          "indices": 14,
          "material": 0,
          "mode": 4
        }
      ]
    },
    {
      "name": "Sphere",
      "primitives": [
        {
          "attributes": {
            "COLOR_0": 18,
            "NORMAL": 16,
            "POSITION": 15,
            "TANGENT": 17
          },
          "indices": 19,
          "material": 0,
          "mode": 4
        }
      ]
    },
    {
      "name": "Sphere",
      "primitives": [
        {
          "attributes": {
            "COLOR_0": 23,
            "NORMAL": 21,
            "POSITION": 20,
            "TANGENT": 22
          },
          "indices": 24,
          "material": 0,
          "mode": 4
        }
      ]
    },
    {
      "name": "Sphere",
      "primitives": [
        {
          "attributes": {
            "COLOR_0": 28,
            "NORMAL": 26,
            "POSITION": 25,
            "TANGENT": 27
          },
          "indices": 29,
          "material": 0,
          "mode": 4
        }
      ]
    },
    {
      "name": "Sphere",
      "primitives": [
        {
          "attributes": {
            "COLOR_0": 33,
            "NORMAL": 31,
            "POSITION": 30,
            "TANGENT": 32
          },
          "indices": 34,
          "material": 0,
          "mode": 4
        }
      ]
    },
    {
      "name": "Sphere",
      "primitives": [
        {
          "attributes": {
            "COLOR_0": 38,
            "NORMAL": 36,
            "POSITION": 35,
            "TANGENT": 37
          },
          "indices": 39,
          "material": 0,
          "mode": 4
        }
      ]
    },
    {
      "name": "Sphere",
      "primitives": [
        {
          "attributes": {
            "COLOR_0": 43,
            "NORMAL": 41,
            "POSITION": 40,
            "TANGENT": 42
          },
          "indices": 44,
          "material": 0,
          "mode": 4
        }
      ]
    },
    {
      "name": "Sphere",
      "primitives": [
        {
          "attributes": {
            "COLOR_0": 48,
            "NORMAL": 46,
            "POSITION": 45,
            "TANGENT": 47
          },
          "indices": 49,
          "material": 0,
          "mode": 4
        }
      ]
    }
  ],
  "nodes": [
    {
      "children": [
        1
      ],
      "name": "RootNode (gltf orientation matrix)",
      "rotation": [
        -0.70710678118654746,
        -0,
        -0,
        0.70710678118654757
      ]
    },
    {
      "children": [
        2
      ],
      "name": "RootNode (model correction matrix)"
    },
    {
      "children": [
        3,
        5,
        16,
        18
      ],
      "name": "Root"
    },
    {
      "children": [
        4
      ],
      "matrix": [
        -0.29086000000000006,
        0.95517000000000007,
        -0.05519000000000001,
        0,
        -0.77110000000000001,
        -0.19988000000000003,
        0.60452000000000006,
        0,
        0.56639000000000006,
        0.21839000000000003,
        0.7946700000000001,
        0,
        4.3484699999999998,
        0.92222000000000004,
        5.4768500000000007,
        1
      ],
      "name": "Lamp"
    },
    {
      "name": "Lamp"
    },
    {
      "children": [
        6,
        7,
        8,
        9,
        10,
        11,
        12,
        13,
        14,
        15
      ],
      "matrix": [
        0.30744000000000005,
        0.16723000000000005,
        0,
        0,
        -0.16723000000000005,
        0.30744000000000005,
        -0,
        0,
        -0,
        -0,
        0.34998000000000012,
        0,
        -0.014300000000000002,
        -0.067650000000000016,
        0.33146000000000009,
        1
      ],
      "name": "Sphere"
    },
    {
      "mesh": 0,
      "name": "Sphere"
    },
    {
      "mesh": 1,
      "name": "Sphere"
    },
    {
      "mesh": 2,
      "name": "Sphere"
    },
    {
      "mesh": 3,
      "name": "Sphere"
    },
    {
      "mesh": 4,
      "name": "Sphere"
    },
    {
      "mesh": 5,
      "name": "Sphere"
    },
    {
      "mesh": 6,
      "name": "Sphere"
    },
    {
      "mesh": 7,
      "name": "Sphere"
    },
    {
      "mesh": 8,
      "name": "Sphere"
    },
    {
      "mesh": 9,
      "name": "Sphere"
    },
    {
      "children": [
        17
      ],
      "matrix": [
        -0.29086000000000006,
        0.95517000000000007,
        -0.05519000000000001,
        0,
        -0.77110000000000001,
        -0.19988000000000003,
        0.60452000000000006,
        0,
        0.56639000000000006,
        0.21839000000000003,
        0.7946700000000001,
        0,
        2.2822200000000001,
        4.8993799999999998,
        4.5659199999999993,
        1
      ],
      "name": "Lamp.001"
    },
    {
      "name": "Lamp.001"
    },
    {
      "children": [
        19
      ],
      "matrix": [
        -0.29086000000000006,
        0.95517000000000007,
        -0.05519000000000001,
        0,
        -0.77110000000000001,
        -0.19988000000000003,
        0.60452000000000006,
        0,
        0.56639000000000006,
        0.21839000000000003,
        0.7946700000000001,
        0,
        4.7599299999999998,
        2.9615900000000002,
        2.1441700000000004,
        1
      ],
      "name": "Lamp.002"
    },
    {
      "name": "Lamp.002"
    }
  ],
  "scene": 0,
  "scenes": [
    {
      "name": "OSG_Scene",
      "nodes": [
        0
      ]
    }
  ]
}

